<?xml version="1.0" encoding="utf-8"?>
<!-- Generator: Adobe Illustrator 18.1.0, SVG Export Plug-In . SVG Version: 6.00 Build 0)  -->
<!DOCTYPE svg PUBLIC "-//W3C//DTD SVG 1.1//EN" "http://www.w3.org/Graphics/SVG/1.1/DTD/svg11.dtd">
<svg version="1.1" id="Layer_1" xmlns="http://www.w3.org/2000/svg" xmlns:xlink="http://www.w3.org/1999/xlink" x="0px" y="0px"
	 viewBox="0 0 40 40" enable-background="new 0 0 40 40" xml:space="preserve">
<g>
	<circle fill-rule="evenodd" clip-rule="evenodd" fill="#FFFFFF" cx="19.9" cy="19.9" r="11.3"/>
	<g>
		<path fill-rule="evenodd" clip-rule="evenodd" fill="#17BED0" d="M20,10.4c-5.2,0-9.4,4.2-9.4,9.4c0,5.2,4.2,9.4,9.4,9.4
			c5.2,0,9.4-4.2,9.4-9.4C29.4,14.6,25.2,10.4,20,10.4z M21.4,22.2h-3.1v2.4c0,0.7-0.5,1.2-1.2,1.2c-0.7,0-1.2-0.5-1.2-1.2v-9
			c0-0.7,0.5-1.2,1.2-1.2h4.3c2.1,0,3.9,1.7,3.9,3.9C25.3,20.5,23.6,22.2,21.4,22.2z"/>
		<path fill-rule="evenodd" clip-rule="evenodd" fill="#17BED0" d="M21.6,17l-3.3,0l0,2.8l3.3,0c0.7-0.1,1.2-0.7,1.2-1.4
			C22.9,17.6,22.3,17.1,21.6,17z"/>
	</g>
	<path fill-rule="evenodd" clip-rule="evenodd" fill="#17BED0" d="M36.9,20.9c-0.3,1.8-1.4,2.8-2.8,3.4c1.5-1,2.4-2.7,2.4-4.6
		c0-2.7-2-5-4.6-5.4c0.7,1.4,0.8,2.5,0.7,3.9c-0.8-6.2-6.1-11-12.6-11c-7,0-12.7,5.7-12.7,12.7c0,1.2,0.2,2.3,0.5,3.4
		c-0.6-1.4-0.9-3-0.9-4.6c0-1.5,0.3-3,0.8-4.3C3.3,15,0,18.9,0,23.5c0,5,4,9.2,9,9.4l0,0h24.7c3.4-0.1,6.3-3.1,6.3-6.5
		C40,24,38.8,22,36.9,20.9z M20,30.4c-5.9,0-10.6-4.8-10.6-10.6c0-5.9,4.8-10.6,10.6-10.6c5.9,0,10.6,4.8,10.6,10.6
		C30.6,25.7,25.9,30.4,20,30.4z"/>
</g>
</svg>
