/* XPM */
static char *pcloud_40x40[] = {
/* columns rows colors chars-per-pixel */
"40 40 96 2 ",
"   c #1BC9D3",
".  c #1CC9D3",
"X  c #1DC9D3",
"o  c #1ECAD4",
"O  c #1FCAD4",
"+  c #21CAD4",
"@  c #22CBD4",
"#  c #23CBD5",
"$  c #25CBD5",
"%  c #26CCD5",
"&  c #28CCD6",
"*  c #2ACDD6",
"=  c #2DCDD6",
"-  c #30CED7",
";  c #38D0D9",
":  c #3BD1D9",
">  c #3DD1DA",
",  c #3ED1DA",
"<  c #40D2DA",
"1  c #41D2DA",
"2  c #42D2DB",
"3  c #45D3DB",
"4  c #47D3DB",
"5  c #49D4DC",
"6  c #4BD4DC",
"7  c #4CD5DC",
"8  c #4DD5DD",
"9  c #4ED5DD",
"0  c #50D5DD",
"q  c #52D6DE",
"w  c #53D6DE",
"e  c #55D7DE",
"r  c #59D8DF",
"t  c #5AD8DF",
"y  c #5DD9E0",
"u  c #5ED9E0",
"i  c #62DAE1",
"p  c #63DAE1",
"a  c #65DBE1",
"s  c #66DBE1",
"d  c #6CDCE3",
"f  c #6EDDE3",
"g  c #6FDDE3",
"h  c #75DEE4",
"j  c #7CE0E6",
"k  c #7EE1E6",
"l  c #7FE1E6",
"z  c #83E2E7",
"x  c #85E2E7",
"c  c #86E2E8",
"v  c #87E3E8",
"b  c #89E3E8",
"n  c #8AE3E8",
"m  c #92E5EA",
"M  c #93E5EA",
"N  c #94E6EA",
"B  c #97E6EB",
"V  c #99E7EB",
"C  c #9BE7EC",
"Z  c #9FE8ED",
"A  c #A0E9ED",
"S  c #A2E9ED",
"D  c #A6EAEE",
"F  c #A7EAEE",
"G  c #A8EAEE",
"H  c #B1EDF0",
"J  c #B4EDF1",
"K  c #B5EDF1",
"L  c #B6EEF1",
"P  c #B7EEF1",
"I  c #BBEFF2",
"U  c #C4F1F4",
"Y  c #CBF3F5",
"T  c #CCF3F5",
"R  c #CDF3F5",
"E  c #D1F4F6",
"W  c #D4F5F7",
"Q  c #D7F5F7",
"!  c #D9F6F8",
"~  c #DDF7F8",
"^  c #DFF7F9",
"/  c #E1F8F9",
"(  c #E2F8F9",
")  c #E4F9FA",
"_  c #E8F9FB",
"`  c #E9FAFB",
"'  c #EBFAFB",
"]  c #EEFBFC",
"[  c #F1FCFC",
"{  c #F4FCFD",
"}  c #F7FDFD",
"|  c #F8FDFE",
" . c #FBFEFE",
".. c #FCFEFE",
"X. c gray100",
"o. c None",
/* pixels */
"o.o.o.o.o.o.o.o.o.o.o.o.o.o.o.o.o.o.o.o.o.o.o.o.o.o.o.o.o.o.o.o.o.o.o.o.o.o.o.o.",
"o.o.o.o.o.o.o.o.o.o.o.o.o.o.o.o.o.o.o.o.o.o.o.o.o.o.o.o.o.o.o.o.o.o.o.o.o.o.o.o.",
"o.o.o.o.o.o.o.o.o.o.o.o.o.o.o.o.o.o.o.o.o.o.o.o.o.o.o.o.o.o.o.o.o.o.o.o.o.o.o.o.",
"o.o.o.o.o.o.o.o.o.o.o.o.o.o.o.o.o.o.o.o.o.o.o.o.o.o.o.o.o.o.o.o.o.o.o.o.o.o.o.o.",
"o.o.o.o.o.o.o.o.o.o.o.o.o.o.o.o.o.o.o.o.o.o.o.o.o.o.o.o.o.o.o.o.o.o.o.o.o.o.o.o.",
"o.o.o.o.o.o.o.o.o.o.o.o.o.o.o.o.o.o.o.o.o.o.o.o.o.o.o.o.o.o.o.o.o.o.o.o.o.o.o.o.",
"o.o.o.o.o.o.o.o.o.o.o.o.o.o.o.o.o.o.o.o.o.o.o.o.o.o.o.o.o.o.o.o.o.o.o.o.o.o.o.o.",
"o.o.o.o.o.o.o.o.o.o.o.o.o.o.o.o.                o.o.o.o.o.o.o.o.o.o.o.o.o.o.o.o.",
"o.o.o.o.o.o.o.o.o.o.o.o.o.o.          .             o.o.o.o.o.o.o.o.o.o.o.o.o.o.",
"o.o.o.o.o.o.o.o.o.o.o.o.      . r Z T ( ( R Z w .       o.o.o.o.o.o.o.o.o.o.o.o.",
"o.o.o.o.o.o.o.o.o.o.o.      i ^ ] F h y t h F ] ^ y   .   o.o.o.o.o.o.o.o.o.o.o.",
"o.o.o.o.o.o.o.o.o.o.    O F [ j +     . . .   @ j [ F .     o.o.o.o.o.o.o.o.o.o.",
"o.o.o.o.o.o.o.o.o.o.  . J ! ;                     ; Q J .   o.o.o.o.o.o.o.o.o.o.",
"o.o.o.o.o.o.o.o.o.    M ~ = . .                     = ~ M     o.o.o.o.o.o.o.o.o.",
"o.o.o.o.o.o.  o.    2 | 3     . r C C C C N d @       3 | ;       o.o.o.o.o.o.o.",
"o.o.o.o.      o.    J S .     . } X.X.X.X.X.X.~ ;       F J           o.o.o.o.o.",
"o.o.o.        o.  * | ,       & X.X.' ( ( ' X.X.Y       2 | %           o.o.o.o.",
"o.o.          o.  i (         & X.X.i       j X.X.,       ^ t           o.o.o.o.",
"o.                b J O       & X.X.i       , X.X.w .     J n .         o.o.o.o.",
"o.                C S         % X.X.j 3 3 6 J X.| = .     S Z .           o.o.o.",
"                  B F         * X.X.X.X.X.X.X.X.S         F N .         o.o.o.o.",
"                  j U         % X.X.X.X.X.X.| Z O         U j .             o.o.",
"                  6 } O       * X.X.b w w 8 *           O [ 3 .               o.",
"                  O _ i       % X.X.i                   a ' . .               o.",
"                    v E . .   % X.X.i                   E x O                   ",
"                    @ ) z       J ! -                 z ) +                     ",
"                    . 8 } s                         a } 8                       ",
"o.                  .   p } v O                 O x } i                         ",
"o.                        8 ( ! d % .       % g ! ( 6                           ",
"o.o.                        @ z ( | Q I I W | ( z +                           o.",
"o.o.o.                            1 d x z g 2                                 o.",
"o.o.o.o.                                                                    o.o.",
"o.o.o.o.o.o.                                                            o.o.o.o.",
"o.o.o.o.o.o.o.o.o.o.o.o.o.o.o.o.o.o.o.o.o.o.o.o.o.o.o.o.o.o.o.o.o.o.o.o.o.o.o.o.",
"o.o.o.o.o.o.o.o.o.o.o.o.o.o.o.o.o.o.o.o.o.o.o.o.o.o.o.o.o.o.o.o.o.o.o.o.o.o.o.o.",
"o.o.o.o.o.o.o.o.o.o.o.o.o.o.o.o.o.o.o.o.o.o.o.o.o.o.o.o.o.o.o.o.o.o.o.o.o.o.o.o.",
"o.o.o.o.o.o.o.o.o.o.o.o.o.o.o.o.o.o.o.o.o.o.o.o.o.o.o.o.o.o.o.o.o.o.o.o.o.o.o.o.",
"o.o.o.o.o.o.o.o.o.o.o.o.o.o.o.o.o.o.o.o.o.o.o.o.o.o.o.o.o.o.o.o.o.o.o.o.o.o.o.o.",
"o.o.o.o.o.o.o.o.o.o.o.o.o.o.o.o.o.o.o.o.o.o.o.o.o.o.o.o.o.o.o.o.o.o.o.o.o.o.o.o.",
"o.o.o.o.o.o.o.o.o.o.o.o.o.o.o.o.o.o.o.o.o.o.o.o.o.o.o.o.o.o.o.o.o.o.o.o.o.o.o.o."
};
